<svg id="light" enable-background="new 0 0 24 24" height="512" viewBox="0 0 24 24" width="512" xmlns="http://www.w3.org/2000/svg"><g><path d="m3.5 15c-.276 0-.5-.224-.5-.5v-7c0-.276.224-.5.5-.5s.5.224.5.5v7c0 .276-.224.5-.5.5z"/></g><g><path d="m12 15c-.276 0-.5-.224-.5-.5v-7c0-.276.224-.5.5-.5s.5.224.5.5v7c0 .276-.224.5-.5.5z"/></g><g><path d="m8.969 13.25c-.172 0-.341-.089-.433-.25-.139-.239-.057-.545.183-.683l6.062-3.5c.239-.138.545-.057.683.183.139.239.057.545-.183.683l-6.062 3.5c-.079.046-.165.067-.25.067z"/></g><g><path d="m15.031 13.25c-.085 0-.171-.021-.25-.067l-6.062-3.5c-.24-.138-.322-.444-.183-.683.138-.239.445-.319.683-.183l6.062 3.5c.239.138.321.444.183.683-.092.16-.261.25-.433.25z"/></g><g><path d="m.469 13.25c-.172 0-.341-.089-.433-.25-.139-.239-.057-.545.183-.683l6.062-3.5c.238-.138.545-.057.683.183.139.239.057.545-.183.683l-6.062 3.5c-.079.046-.165.067-.25.067z"/></g><g><path d="m6.531 13.25c-.085 0-.171-.021-.25-.067l-6.062-3.5c-.24-.138-.322-.444-.183-.683.138-.239.444-.319.683-.183l6.062 3.5c.24.138.322.444.183.683-.092.16-.261.25-.433.25z"/></g><g><path d="m20.5 15c-.276 0-.5-.224-.5-.5v-7c0-.276.224-.5.5-.5s.5.224.5.5v7c0 .276-.224.5-.5.5z"/></g><g><path d="m17.469 13.25c-.172 0-.341-.089-.433-.25-.139-.239-.057-.545.183-.683l6.062-3.5c.24-.138.546-.057.683.183.139.239.057.545-.183.683l-6.062 3.5c-.079.046-.165.067-.25.067z"/></g><g><path d="m23.531 13.25c-.085 0-.171-.021-.25-.067l-6.062-3.5c-.24-.138-.322-.444-.183-.683.138-.239.444-.319.683-.183l6.062 3.5c.239.138.321.444.183.683-.092.16-.261.25-.433.25z"/></g><g><path d="m6.5 18h-6c-.276 0-.5-.224-.5-.5s.224-.5.5-.5h6c.276 0 .5.224.5.5s-.224.5-.5.5z"/></g><g><path d="m15 18h-6c-.276 0-.5-.224-.5-.5s.224-.5.5-.5h6c.276 0 .5.224.5.5s-.224.5-.5.5z"/></g><g><path d="m23.5 18h-6c-.276 0-.5-.224-.5-.5s.224-.5.5-.5h6c.276 0 .5.224.5.5s-.224.5-.5.5z"/></g></svg>